<svg id="Layer_1" data-name="Layer 1" xmlns="http://www.w3.org/2000/svg" xmlns:xlink="http://www.w3.org/1999/xlink" viewBox="0 0 401.69 598.5"><defs><style>.cls-1{fill:url(#linear-gradient);}.cls-2{fill:url(#linear-gradient-2);}.cls-3{fill:url(#linear-gradient-3);}</style><linearGradient id="linear-gradient" x1="361.19" y1="329.31" x2="532.19" y2="787.92" gradientUnits="userSpaceOnUse"><stop offset="0" stop-color="#2d2d2d"/><stop offset="0.98" stop-color="#010101"/><stop offset="1"/></linearGradient><linearGradient id="linear-gradient-2" x1="350.11" y1="464.2" x2="694" y2="464.2" gradientUnits="userSpaceOnUse"><stop offset="0" stop-color="#a9a9a9"/><stop offset="0.28" stop-color="#7d7d7d"/><stop offset="0.93" stop-color="#0d0d0d"/><stop offset="1"/></linearGradient><linearGradient id="linear-gradient-3" x1="746" y1="362" x2="746" y2="362" xlink:href="#linear-gradient-2"/></defs><title>flint-logo</title><path class="cls-1" d="M677,703.9A200,200,0,0,1,494,823c-97.64,0-178.94-70-196.49-162.5a1.87,1.87,0,0,1,0-.25c-1.38-9.93-2.55-21-3.42-33.07-6.28-87.31,2.73-229.14,56.06-398.28C394.12,258.86,644,439.7,677,703.9Z" transform="translate(-292.31 -224.5)"/><path class="cls-2" d="M693.73,612.57q.27,5.17.27,10.43a199.22,199.22,0,0,1-17,80.9c-32.93-264.2-282.84-445-326.85-475,.46-1.46.92-2.93,1.39-4.4,0,0,344,197.08,342.5,388Z" transform="translate(-292.31 -224.5)"/><path class="cls-3" d="M746,362" transform="translate(-292.31 -224.5)"/></svg>